<svg xmlns="http://www.w3.org/2000/svg" width="300" height="200" viewBox="0 0 300 200"><rect width="100%" height="100%" fill="#DDDDDD"/><path fill="#999999" d="M67.31 96.91h3.82q1.41 0 2.45-.35 1.05-.35 1.74-1.01.7-.65 1.04-1.6.34-.94.34-2.09 0-1.11-.34-2t-1.03-1.52q-.68-.63-1.73-.96-1.04-.33-2.47-.33h-3.82zM62.2 83.1h8.93q2.76 0 4.77.64 2.02.65 3.33 1.81t1.94 2.77q.64 1.62.64 3.54 0 1.99-.66 3.65-.67 1.67-2 2.86-1.33 1.2-3.33 1.86-2.01.67-4.69.67h-3.82v9.67H62.2zm26.93 9.15.28 2.21q.91-1.75 2.17-2.75 1.25-1 2.96-1 1.35 0 2.17.59l-.31 3.52q-.09.34-.27.48-.18.15-.49.15-.28 0-.84-.1-.56-.09-1.09-.09-.78 0-1.39.22-.61.23-1.09.66-.49.43-.86 1.04-.37.6-.69 1.38v12.01h-4.7V91.08h2.76q.72 0 1.01.25.28.26.38.92m18.65-1.48q2.17 0 3.95.71 1.77.7 3.04 1.99 1.26 1.29 1.94 3.15.69 1.87.69 4.16 0 2.32-.69 4.19-.68 1.86-1.94 3.17-1.27 1.31-3.04 2.01-1.78.7-3.95.7-2.18 0-3.97-.7-1.78-.7-3.05-2.01-1.26-1.31-1.95-3.17-.7-1.87-.7-4.19 0-2.29.7-4.16.69-1.86 1.95-3.15 1.27-1.29 3.05-1.99 1.79-.71 3.97-.71m0 16.48q2.44 0 3.6-1.64 1.17-1.63 1.17-4.79 0-3.15-1.17-4.8-1.16-1.66-3.6-1.66-2.47 0-3.65 1.67-1.19 1.66-1.19 4.79 0 3.14 1.19 4.78 1.18 1.65 3.65 1.65m17.9-10.47v8.74q.8.97 1.74 1.36.94.4 2.04.4 1.07 0 1.92-.4.86-.39 1.46-1.21.59-.82.92-2.06.32-1.25.32-2.94 0-1.71-.28-2.9-.27-1.18-.78-1.92-.52-.75-1.25-1.09t-1.66-.34q-1.46 0-2.49.62t-1.94 1.74m-.63-4.85.38 1.81q1.2-1.35 2.72-2.19t3.57-.84q1.6 0 2.92.67t2.28 1.93 1.48 3.11q.52 1.86.52 4.25 0 2.19-.58 4.05-.59 1.86-1.69 3.23-1.09 1.37-2.64 2.14-1.55.76-3.46.76-1.64 0-2.8-.5t-2.07-1.39v7.98h-4.69V91.08h2.87q.91 0 1.19.85m21.23 6.65h8.85q0-.91-.25-1.72-.26-.81-.77-1.41-.52-.61-1.31-.96-.78-.35-1.83-.35-2.03 0-3.2 1.15-1.17 1.16-1.49 3.29m11.97 2.83h-12.07q.12 1.5.53 2.6.42 1.09 1.11 1.8.68.71 1.62 1.06.94.36 2.08.36t1.97-.27q.82-.27 1.44-.59t1.09-.59q.46-.26.9-.26.59 0 .87.43l1.35 1.71q-.78.92-1.75 1.53-.97.62-2.02.99-1.06.37-2.15.52t-2.12.15q-2.03 0-3.78-.67t-3.04-1.99q-1.29-1.33-2.03-3.27-.74-1.95-.74-4.51 0-2 .64-3.76.65-1.75 1.86-3.06 1.2-1.3 2.94-2.06t3.93-.76q1.84 0 3.4.59 1.55.59 2.68 1.72 1.12 1.13 1.75 2.77.64 1.65.64 3.76 0 1.06-.23 1.43t-.87.37m8.76-9.16.28 2.21q.91-1.75 2.17-2.75 1.25-1 2.96-1 1.35 0 2.17.59l-.31 3.52q-.09.34-.27.48-.18.15-.49.15-.28 0-.84-.1-.56-.09-1.09-.09-.78 0-1.39.22-.61.23-1.09.66-.49.43-.86 1.04-.37.6-.69 1.38v12.01h-4.7V91.08h2.76q.72 0 1.01.25.28.26.38.92m16.53 18.62q-2.55 0-3.91-1.43t-1.36-3.96V94.59h-1.99q-.38 0-.65-.25-.26-.24-.26-.74v-1.86l3.13-.51.99-5.32q.09-.38.36-.59t.68-.21h2.44v6.14h5.2v3.34h-5.2v10.56q0 .92.44 1.43.45.51 1.23.51.44 0 .73-.1.29-.11.51-.22t.39-.22q.17-.1.34-.1.21 0 .35.1.13.11.28.31l1.41 2.28q-1.03.86-2.36 1.3-1.33.43-2.75.43m21.58-19.79h3.76l-10.62 24.85q-.21.49-.54.75t-1.02.26h-3.49l3.65-7.83-7.89-18.03h4.12q.55 0 .87.26.31.27.46.61l4.15 10.11q.2.51.35 1.02.14.52.27 1.05l.34-1.06q.18-.52.38-1.03l3.92-10.09q.15-.38.5-.63.35-.24.79-.24m27.74 15.97h4.94v3.52h-15.2v-3.52h5.57V91.04q0-.95.05-1.96l-3.95 3.31q-.34.26-.67.33t-.63.01q-.29-.06-.52-.2t-.34-.31l-1.49-2.04 8.38-7.12h3.86z"/></svg>